<?xml version="1.0" standalone="no"?>
<!DOCTYPE svg PUBLIC "-//W3C//DTD SVG 20010904//EN"
 "http://www.w3.org/TR/2001/REC-SVG-20010904/DTD/svg10.dtd">
<svg version="1.0" xmlns="http://www.w3.org/2000/svg"
 width="435.000000pt" height="357.000000pt" viewBox="0 0 435.000000 357.000000"
 preserveAspectRatio="xMidYMid meet">

<g transform="translate(0.000000,357.000000) scale(0.100000,-0.100000)"
fill="#000000" stroke="none">
<path d="M1980 3505 c-104 -19 -192 -46 -214 -64 -23 -20 -118 -181 -142 -240
-14 -36 -15 -46 -5 -49 8 -3 23 -14 34 -25 18 -18 35 -20 176 -23 86 -1 185
-9 221 -16 l65 -13 56 70 c69 86 204 222 283 284 l59 46 -74 18 c-101 25 -357
32 -459 12z"/>
<path d="M2580 3384 c-112 -92 -320 -316 -320 -344 0 -4 17 -14 38 -20 130
-42 344 -177 475 -300 63 -58 70 -62 93 -51 14 6 38 11 54 11 25 0 30 6 44 48
31 94 47 207 48 336 l0 128 -34 29 c-63 54 -178 130 -257 170 -43 21 -80 39
-82 38 -2 0 -29 -20 -59 -45z"/>
<path d="M1544 3344 c-157 -94 -301 -230 -388 -366 l-17 -26 78 33 c52 23 81
42 88 57 25 58 74 98 143 119 39 11 47 19 74 73 17 34 44 80 60 104 16 23 27
42 25 42 -2 0 -30 -16 -63 -36z"/>
<path d="M3105 2922 c0 -126 -4 -186 -18 -243 -18 -76 -18 -78 4 -140 17 -52
20 -77 14 -133 -3 -37 -11 -78 -17 -90 -7 -18 -4 -37 17 -87 62 -153 97 -336
99 -517 1 -141 0 -142 76 8 96 191 134 351 133 560 -1 258 -74 489 -223 704
-88 128 -85 130 -85 -62z"/>
<path d="M1445 3045 c-31 -30 -32 -49 -3 -69 28 -20 51 -20 88 -1 37 19 47 50
24 76 -25 28 -79 25 -109 -6z"/>
<path d="M1647 2934 c-18 -20 -48 -41 -78 -51 -62 -22 -64 -30 -64 -263 0
-229 30 -370 120 -567 31 -66 36 -73 63 -73 l28 0 13 108 c28 248 96 471 212
700 42 83 76 152 76 152 -1 0 -40 7 -87 15 -47 8 -123 15 -170 14 -84 0 -85
-1 -113 -35z"/>
<path d="M1235 2877 c-44 -18 -105 -46 -135 -62 -48 -27 -57 -36 -78 -90 -69
-170 -102 -397 -82 -570 20 -175 21 -178 98 -213 119 -55 254 -97 374 -117 35
-5 38 -4 57 33 11 21 26 44 35 51 13 11 11 20 -13 75 -122 270 -153 526 -105
854 5 33 4 42 -8 42 -9 0 -21 7 -28 15 -17 20 -23 19 -115 -18z"/>
<path d="M2134 2858 c-51 -80 -145 -288 -184 -406 -43 -133 -74 -273 -89 -412
l-11 -95 26 -20 c15 -11 40 -34 56 -51 l29 -31 62 18 c254 72 458 189 633 364
l100 100 -3 94 -2 95 -58 59 c-94 95 -219 183 -358 252 -176 86 -168 85 -201
33z"/>
<path d="M2890 2505 c-17 -18 -23 -36 -23 -70 0 -34 6 -52 23 -70 29 -31 56
-29 82 6 38 51 14 149 -38 157 -11 2 -30 -9 -44 -23z"/>
<path d="M2782 2110 c-181 -194 -427 -338 -689 -402 -87 -21 -93 -24 -93 -48
0 -14 -6 -36 -13 -50 -12 -24 -10 -27 38 -66 175 -143 403 -245 632 -284 174
-30 189 -28 264 26 34 26 93 78 131 116 l68 69 0 117 c0 178 -34 345 -105 515
l-37 87 -43 0 c-24 0 -49 2 -57 5 -7 2 -49 -34 -96 -85z"/>
<path d="M1655 1831 c-44 -19 -65 -53 -65 -103 0 -22 10 -41 38 -68 71 -71
162 -71 210 0 40 59 13 126 -68 168 -53 27 -63 27 -115 3z"/>
<path d="M1020 1829 c0 -6 18 -47 41 -92 159 -318 423 -545 757 -651 46 -14
87 -26 92 -26 5 0 -9 36 -32 81 -38 77 -108 266 -108 294 0 25 -31 45 -69 45
-85 0 -205 89 -240 176 -10 26 -20 33 -53 38 -65 11 -248 73 -320 110 -38 19
-68 30 -68 25z"/>
<path d="M1911 1398 c25 -91 61 -180 110 -279 33 -66 42 -77 70 -83 79 -15
241 -1 383 35 85 22 256 88 256 99 0 4 -42 10 -92 13 -107 6 -242 35 -349 73
-97 34 -271 125 -337 174 -29 22 -54 40 -57 40 -2 0 5 -33 16 -72z"/>
<path d="M185 501 c-22 -10 -51 -29 -64 -41 -67 -64 -86 -206 -41 -295 31 -59
84 -104 133 -112 l37 -6 0 41 c0 35 -4 43 -34 60 -52 30 -70 66 -71 133 0 65
19 100 73 134 28 18 32 25 29 59 -1 22 -6 41 -12 42 -5 2 -28 -5 -50 -15z"/>
<path d="M307 514 c-4 -4 -7 -22 -7 -41 0 -28 5 -35 34 -47 19 -8 44 -28 57
-45 18 -25 30 -31 60 -31 21 0 41 5 44 11 12 19 -49 103 -90 126 -47 26 -88
37 -98 27z"/>
<path d="M760 495 c-5 -14 -35 -84 -65 -156 -31 -72 -55 -138 -53 -147 2 -13
14 -17 42 -17 l39 0 44 105 c24 57 45 106 47 107 3 3 48 -101 103 -234 4 -10
-29 -13 -143 -13 -82 0 -154 -4 -159 -8 -15 -11 -36 -62 -30 -73 10 -15 455
-12 460 4 3 6 -37 111 -89 232 l-93 220 -47 3 c-42 3 -47 1 -56 -23z"/>
<path d="M1172 478 l3 -43 126 -3 c135 -3 148 -7 163 -59 5 -17 1 -29 -18 -48
-24 -24 -30 -25 -151 -25 l-125 0 0 -125 0 -125 39 0 c47 0 51 8 51 96 l0 64
58 0 57 0 50 -80 c49 -79 50 -80 92 -80 24 0 43 5 45 12 3 7 -17 46 -44 88
l-48 75 34 30 c86 74 59 214 -47 254 -16 6 -87 11 -158 11 l-130 0 3 -42z"/>
<path d="M1704 506 c-3 -8 -4 -27 -2 -43 l3 -28 175 0 175 0 0 40 0 40 -173 3
c-143 2 -173 0 -178 -12z"/>
<path d="M2352 478 l3 -43 45 0 45 0 3 43 3 42 -51 0 -51 0 3 -42z"/>
<path d="M2505 508 c-3 -8 -4 -115 -3 -238 l3 -225 28 -3 c54 -6 57 3 57 204
l0 183 73 3 72 3 0 40 0 40 -113 3 c-85 2 -114 0 -117 -10z"/>
<path d="M2864 506 c-3 -8 -4 -27 -2 -43 l3 -28 175 0 175 0 0 40 0 40 -173 3
c-143 2 -173 0 -178 -12z"/>
<path d="M3462 500 c-86 -39 -125 -106 -125 -220 -1 -83 18 -133 70 -182 31
-30 91 -58 111 -51 7 3 12 22 12 44 0 32 -4 41 -22 48 -108 42 -118 217 -16
274 36 20 38 25 36 61 -2 22 -7 41 -13 42 -5 2 -29 -5 -53 -16z"/>
<path d="M3580 480 c0 -36 3 -41 34 -54 18 -7 43 -28 55 -45 19 -26 29 -31 62
-31 34 0 39 3 39 22 0 37 -49 96 -103 123 -73 36 -87 34 -87 -15z"/>
<path d="M3914 507 c-3 -8 -4 -43 -2 -78 l3 -64 40 0 40 0 0 75 0 75 -38 3
c-25 2 -39 -1 -43 -11z"/>
<path d="M4217 514 c-4 -4 -7 -47 -7 -95 l0 -88 -147 -3 -148 -3 -3 -138 -3
-138 43 3 43 3 3 92 3 93 104 0 105 0 0 -96 0 -95 43 3 42 3 0 230 0 230 -35
3 c-20 2 -39 0 -43 -4z"/>
<path d="M1704 316 c-3 -8 -4 -27 -2 -43 l3 -28 160 0 160 0 0 40 0 40 -158 3
c-130 2 -158 0 -163 -12z"/>
<path d="M2864 316 c-3 -8 -4 -27 -2 -43 l3 -28 160 0 160 0 0 40 0 40 -158 3
c-130 2 -158 0 -163 -12z"/>
<path d="M391 181 c-19 -24 -44 -42 -61 -46 -27 -6 -30 -11 -30 -45 0 -47 7
-52 50 -40 53 15 107 59 129 103 24 47 15 67 -29 67 -21 0 -37 -10 -59 -39z"/>
<path d="M3695 212 c-6 -4 -18 -19 -27 -34 -10 -14 -33 -32 -53 -39 -32 -12
-35 -17 -35 -50 0 -47 7 -51 56 -37 73 20 161 134 123 159 -17 11 -50 11 -64
1z"/>
<path d="M1711 126 c-7 -8 -11 -27 -9 -43 l3 -28 175 0 175 0 3 34 c2 20 -2
37 -10 42 -7 5 -83 9 -169 9 -124 0 -159 -3 -168 -14z"/>
<path d="M2871 126 c-7 -8 -11 -27 -9 -43 l3 -28 175 0 175 0 3 34 c2 20 -2
37 -10 42 -7 5 -83 9 -169 9 -124 0 -159 -3 -168 -14z"/>
</g>
</svg>
