<?xml version="1.0" standalone="no"?>
<!DOCTYPE svg PUBLIC "-//W3C//DTD SVG 20010904//EN"
 "http://www.w3.org/TR/2001/REC-SVG-20010904/DTD/svg10.dtd">
<svg version="1.0" xmlns="http://www.w3.org/2000/svg"
 width="258.000000pt" height="259.000000pt" viewBox="0 0 258.000000 259.000000"
 preserveAspectRatio="xMidYMid meet">

<g transform="translate(0.000000,259.000000) scale(0.100000,-0.100000)"
fill="#000000" stroke="none">
<path d="M1175 2538 c-80 -6 -290 -48 -300 -60 -20 -23 -105 -166 -132 -224
l-36 -75 34 -28 c33 -28 35 -29 169 -29 118 0 223 -10 296 -28 18 -5 33 8 78
65 71 89 205 223 286 286 l61 49 -39 12 c-102 30 -275 43 -417 32z"/>
<path d="M1690 2413 c-86 -69 -175 -159 -262 -263 -67 -81 -76 -96 -61 -102
213 -82 352 -168 515 -317 l67 -62 30 16 c17 8 43 15 59 15 26 0 30 5 45 54
32 99 49 253 43 365 -8 116 3 99 -115 188 -55 42 -133 87 -221 129 l-45 21
-55 -44z"/>
<path d="M652 2371 c-104 -62 -194 -134 -270 -215 -55 -59 -152 -186 -152
-199 0 -3 41 13 90 37 80 37 93 46 111 84 23 46 80 87 138 98 27 6 37 16 63
68 17 33 48 87 70 119 21 31 37 57 35 57 -2 0 -40 -22 -85 -49z"/>
<path d="M2203 2120 c3 -14 9 -70 13 -125 6 -102 -4 -206 -32 -316 -13 -53
-13 -60 7 -104 25 -56 28 -160 6 -221 -14 -38 -14 -43 13 -107 66 -154 100
-328 101 -517 1 -133 1 -134 20 -110 35 47 118 225 143 310 44 150 51 199 51
365 0 175 -14 265 -64 410 -48 138 -145 308 -232 405 -29 32 -31 33 -26 10z"/>
<path d="M556 2069 c-30 -24 -33 -49 -8 -72 34 -31 104 -15 124 28 25 55 -60
88 -116 44z"/>
<path d="M749 1955 c-29 -25 -70 -51 -90 -57 l-38 -11 -7 -76 c-27 -259 15
-519 121 -748 31 -67 36 -73 64 -73 29 0 30 2 36 58 32 301 122 595 254 823
27 46 47 87 45 90 -4 7 -147 26 -255 34 l-77 6 -53 -46z"/>
<path d="M375 1914 c-38 -13 -104 -40 -147 -60 l-76 -37 -26 -66 c-83 -214
-105 -445 -65 -680 11 -65 16 -75 43 -92 75 -46 303 -121 409 -134 53 -7 54
-6 66 23 7 17 23 40 36 52 24 23 24 23 6 59 -55 107 -101 250 -127 393 -19
106 -19 338 0 443 8 44 13 80 13 80 -1 0 -15 9 -32 21 l-30 21 -70 -23z"/>
<path d="M1208 1827 c-137 -253 -222 -529 -243 -797 l-6 -75 55 -48 55 -48 61
16 c244 63 468 192 646 371 l102 102 -9 48 c-5 26 -6 69 -3 94 l6 46 -84 79
c-129 122 -298 228 -464 291 l-60 22 -56 -101z"/>
<path d="M2001 1531 c-26 -26 -35 -74 -21 -116 22 -66 85 -72 114 -10 41 85
-34 185 -93 126z"/>
<path d="M1891 1139 c-186 -201 -436 -344 -737 -419 -37 -9 -41 -14 -57 -62
l-17 -53 37 -33 c199 -171 501 -293 769 -309 l92 -6 58 45 c33 25 89 75 126
111 65 65 66 68 73 132 16 142 -36 424 -107 590 l-35 79 -41 -2 c-22 -2 -49 1
-60 7 -16 8 -30 -3 -101 -80z"/>
<path d="M126 847 c13 -43 86 -183 132 -252 65 -99 239 -270 345 -339 48 -32
127 -75 175 -96 80 -36 253 -92 260 -85 2 2 -10 27 -27 56 -39 70 -89 195
-116 289 l-21 75 -51 6 c-101 13 -215 94 -244 174 -10 26 -20 36 -43 40 -88
18 -222 63 -314 106 -94 44 -102 46 -96 26z"/>
<path d="M764 856 c-95 -42 -82 -171 22 -218 57 -25 102 -18 147 22 27 24 32
35 32 74 0 36 -6 51 -30 77 -53 55 -111 71 -171 45z"/>
<path d="M1016 419 c27 -103 80 -234 126 -316 l31 -56 146 6 c195 8 335 40
486 112 l70 33 -65 1 c-86 1 -225 24 -335 56 -114 33 -308 127 -406 198 l-77
55 24 -89z"/>
</g>
</svg>
