<?xml version="1.0" standalone="no"?>
<!DOCTYPE svg PUBLIC "-//W3C//DTD SVG 20010904//EN"
 "http://www.w3.org/TR/2001/REC-SVG-20010904/DTD/svg10.dtd">
<svg version="1.0" xmlns="http://www.w3.org/2000/svg"
 width="435.000000pt" height="57.000000pt" viewBox="0 0 435.000000 57.000000"
 preserveAspectRatio="xMidYMid meet">

<g transform="translate(0.000000,57.000000) scale(0.100000,-0.100000)"
fill="#000000" stroke="none">
<path d="M174 501 c-73 -33 -124 -122 -124 -214 0 -105 50 -191 136 -232 47
-22 69 -11 69 36 0 27 -7 38 -39 59 -50 35 -65 63 -66 128 0 67 20 105 70 137
29 18 40 32 40 49 0 60 -18 68 -86 37z"/>
<path d="M297 513 c-9 -9 -9 -55 1 -69 4 -5 22 -16 40 -24 19 -7 41 -25 50
-39 22 -34 32 -41 63 -41 57 0 58 44 3 109 -41 49 -135 87 -157 64z"/>
<path d="M766 512 c-23 -38 -136 -318 -132 -329 7 -17 80 -17 93 0 6 6 27 54
48 105 28 67 41 89 47 78 4 -8 28 -62 52 -120 l45 -106 -154 0 -154 0 -16 -30
c-21 -40 -19 -59 8 -65 12 -3 116 -4 232 -3 201 3 210 4 212 23 2 11 -39 117
-90 235 l-92 215 -47 3 c-25 2 -49 -1 -52 -6z"/>
<path d="M1167 513 c-9 -8 -9 -46 -1 -67 5 -13 26 -16 128 -16 142 0 166 -9
166 -65 0 -49 -24 -58 -170 -64 l-125 -6 -3 -114 c-3 -123 3 -141 47 -141 42
0 51 17 51 97 l0 73 55 0 55 0 46 -73 c25 -39 53 -78 62 -84 22 -18 67 -16 82
2 10 13 4 29 -38 94 l-50 79 29 21 c87 65 73 208 -25 255 -26 12 -65 16 -168
16 -74 0 -138 -3 -141 -7z"/>
<path d="M1704 506 c-3 -8 -4 -27 -2 -43 l3 -28 175 0 175 0 3 43 3 42 -176 0
c-142 0 -177 -3 -181 -14z"/>
<path d="M2347 513 c-9 -8 -9 -46 -1 -67 4 -12 20 -16 55 -16 43 0 49 3 55 24
3 14 3 34 -1 45 -5 17 -15 21 -54 21 -26 0 -51 -3 -54 -7z"/>
<path d="M2496 504 c-9 -24 -7 -437 3 -452 5 -8 23 -12 47 -10 l39 3 3 192 2
192 73 3 72 3 3 43 3 42 -119 0 c-100 0 -121 -3 -126 -16z"/>
<path d="M2864 506 c-3 -8 -4 -27 -2 -43 l3 -28 175 0 175 0 3 43 3 42 -176 0
c-142 0 -177 -3 -181 -14z"/>
<path d="M3454 501 c-112 -51 -159 -216 -96 -341 30 -60 89 -109 136 -113 59
-4 61 66 2 101 -45 27 -68 72 -68 133 1 62 18 97 62 127 42 28 55 52 46 86 -8
31 -26 32 -82 7z"/>
<path d="M3577 513 c-4 -3 -7 -21 -7 -39 0 -29 5 -35 44 -53 24 -10 50 -30 57
-43 16 -30 28 -38 60 -38 43 0 53 22 31 67 -11 21 -31 48 -44 60 -40 38 -123
65 -141 46z"/>
<path d="M3906 504 c-9 -23 -7 -117 3 -132 5 -8 23 -12 47 -10 l39 3 3 78 3
77 -45 0 c-31 0 -46 -5 -50 -16z"/>
<path d="M4206 505 c-3 -9 -6 -52 -6 -96 l0 -79 -144 0 c-122 0 -145 -2 -150
-16 -10 -26 -7 -234 4 -255 11 -19 43 -25 74 -13 13 5 16 24 16 100 l0 94 100
0 100 0 0 -81 c0 -94 10 -119 48 -119 53 0 53 -1 50 246 l-3 229 -41 3 c-31 2
-43 -1 -48 -13z"/>
<path d="M1707 323 c-4 -3 -7 -24 -7 -45 l0 -38 165 0 165 0 0 45 0 45 -158 0
c-87 0 -162 -3 -165 -7z"/>
<path d="M2867 323 c-4 -3 -7 -24 -7 -45 l0 -38 164 0 c158 0 165 1 171 21 4
11 4 31 1 45 l-6 24 -159 0 c-87 0 -161 -3 -164 -7z"/>
<path d="M393 190 c-9 -16 -36 -39 -60 -50 -35 -17 -43 -25 -43 -48 0 -43 13
-56 51 -48 51 10 105 51 134 101 34 57 28 75 -24 75 -34 0 -43 -5 -58 -30z"/>
<path d="M3667 185 c-15 -19 -44 -42 -63 -50 -33 -13 -35 -17 -32 -52 3 -37 4
-38 40 -36 52 3 112 44 143 98 34 56 28 75 -22 75 -31 0 -43 -6 -66 -35z"/>
<path d="M1707 134 c-14 -15 -7 -82 9 -88 24 -9 317 -7 332 3 8 5 12 23 10 47
l-3 39 -171 3 c-93 1 -173 -1 -177 -4z"/>
<path d="M2867 134 c-14 -15 -7 -82 9 -88 24 -9 317 -7 332 3 8 5 12 23 10 47
l-3 39 -171 3 c-93 1 -173 -1 -177 -4z"/>
</g>
</svg>
